<?xml version="1.0" encoding="utf-8"?>
<!-- Generator: Adobe Illustrator 15.0.0, SVG Export Plug-In . SVG Version: 6.00 Build 0)  -->
<!DOCTYPE svg PUBLIC "-//W3C//DTD SVG 1.1//EN" "http://www.w3.org/Graphics/SVG/1.1/DTD/svg11.dtd">
<svg version="1.1" id="Layer_1" xmlns="http://www.w3.org/2000/svg" xmlns:xlink="http://www.w3.org/1999/xlink" x="0px" y="0px"
	 width="140px" height="140px" viewBox="0 0 140 140" enable-background="new 0 0 140 140" xml:space="preserve">
<path fill-rule="evenodd" clip-rule="evenodd" d="M87.673,60c-2.36,0-5.201-2.096-6.078-4.289l-8.468-21.256
	c-0.781-1.953,0.172-4.224,2.125-5.004l21.17-8.49c0.405-0.162,1.225-0.256,1.569-0.256c1.415,0,2.009,1.438,2.009,2.061v33.071
	C100,57.94,97.409,60,95.305,60H87.673L87.673,60z M72.435,26.271L72.435,26.271c0.48,0,0.951-0.158,1.4-0.337l21.61-8.504
	c2.192-0.877,4.555-3.751,4.555-6.111V3.686C100,1.582,97.409,0,95.305,0H62.233c-0.869,0-1.522,0.191-1.839,0.658
	c-0.314,0.465-0.311,1.135,0.013,1.943l8.468,21.223C69.448,25.257,70.879,26.271,72.435,26.271L72.435,26.271z M41.239,38.828
	c-1.417,0-1.239-1.448-1.239-2.072V3.686C40,1.582,41.051,0,43.154,0h7.631c2.361,0,5.202,1.857,6.079,4.051l8.469,21.139
	c0.78,1.953-0.173,4.16-2.127,4.943l-21.17,8.459c-0.403,0.162-0.618,0.24-0.962,0.24L41.239,38.828L41.239,38.828z M43.154,60
	h33.071c0.869,0,1.522-0.43,1.838-0.896c0.314-0.469,0.312-1.254-0.011-2.061l-8.47-21.215c-0.573-1.434-2.001-2.418-3.558-2.418
	c-0.48,0-0.951,0.079-1.401,0.26l-20.84,8.463C41.592,43.01,40,45.844,40,48.205v7.632C40,57.94,41.051,60,43.154,60z"/>
<path fill-rule="evenodd" clip-rule="evenodd" d="M7.311,133.165c-2.302,0-4.084-0.708-5.348-2.124
	c-1.263-1.422-1.892-3.426-1.892-6.017c0-2.665,0.64-4.718,1.921-6.168c1.283-1.454,3.106-2.182,5.477-2.182
	c0.763,0,1.525,0.087,2.293,0.249c0.763,0.164,1.361,0.358,1.798,0.583l-0.744,2.046c-0.53-0.212-1.109-0.389-1.737-0.531
	c-0.631-0.138-1.185-0.207-1.669-0.207c-3.23,0-4.844,2.06-4.844,6.181c0,1.949,0.391,3.451,1.179,4.498
	c0.792,1.043,1.956,1.562,3.506,1.562c1.322,0,2.684-0.285,4.075-0.856v2.142C10.264,132.89,8.926,133.165,7.311,133.165
	L7.311,133.165z M28.823,124.905c0,2.596-0.654,4.619-1.955,6.074c-1.309,1.458-3.111,2.186-5.413,2.186
	c-1.422,0-2.685-0.331-3.788-1c-1.101-0.669-1.953-1.629-2.552-2.878c-0.604-1.246-0.901-2.708-0.901-4.382
	c0-2.596,0.649-4.614,1.946-6.059c1.293-1.448,3.095-2.172,5.395-2.172c2.227,0,3.991,0.738,5.303,2.219
	C28.169,120.375,28.823,122.381,28.823,124.905L28.823,124.905z M16.711,124.905c0,2.033,0.405,3.581,1.218,4.645
	c0.81,1.065,2.005,1.596,3.584,1.596c1.576,0,2.773-0.53,3.592-1.589c0.816-1.06,1.223-2.612,1.223-4.651
	c0-2.022-0.406-3.556-1.223-4.604c-0.818-1.049-2.027-1.575-3.621-1.575c-1.58,0-2.769,0.517-3.57,1.549
	C17.11,121.312,16.711,122.856,16.711,124.905L16.711,124.905z M45.438,132.868l-2.918-9.324c-0.183-0.57-0.523-1.867-1.029-3.889
	h-0.113c-0.387,1.694-0.728,2.998-1.016,3.919l-3.006,9.294h-2.783l-4.343-15.894h2.525c1.025,3.989,1.807,7.035,2.347,9.12
	c0.535,2.089,0.842,3.498,0.922,4.226h0.113c0.108-0.557,0.278-1.271,0.516-2.141c0.236-0.877,0.441-1.568,0.619-2.085l2.916-9.12
	h2.61l2.843,9.12c0.545,1.663,0.911,3.061,1.104,4.193h0.119c0.035-0.351,0.139-0.888,0.312-1.606
	c0.169-0.73,1.173-4.632,3.026-11.707h2.496l-4.398,15.894H45.438L45.438,132.868z M69.287,124.905c0,2.596-0.654,4.619-1.957,6.074
	c-1.309,1.458-3.111,2.186-5.412,2.186c-1.422,0-2.686-0.331-3.789-1c-1.1-0.669-1.95-1.629-2.55-2.878
	c-0.604-1.246-0.902-2.708-0.902-4.382c0-2.596,0.649-4.614,1.948-6.059c1.291-1.448,3.094-2.172,5.392-2.172
	c2.229,0,3.991,0.738,5.304,2.219C68.633,120.375,69.287,122.381,69.287,124.905L69.287,124.905z M57.173,124.905
	c0,2.033,0.405,3.581,1.218,4.645c0.812,1.065,2.008,1.596,3.587,1.596c1.574,0,2.772-0.53,3.59-1.589
	c0.817-1.06,1.223-2.612,1.223-4.651c0-2.022-0.405-3.556-1.223-4.604c-0.817-1.049-2.026-1.575-3.621-1.575
	c-1.579,0-2.767,0.517-3.569,1.549C57.574,121.312,57.173,122.856,57.173,124.905L57.173,124.905z M80.76,116.675
	c0.703,0,1.338,0.062,1.896,0.175l-0.331,2.243c-0.659-0.146-1.239-0.22-1.744-0.22c-1.282,0-2.382,0.522-3.298,1.564
	c-0.91,1.047-1.367,2.35-1.367,3.903v8.527h-2.411v-15.894h1.991l0.271,2.935h0.12c0.589-1.036,1.298-1.833,2.128-2.392
	C78.85,116.958,79.76,116.675,80.76,116.675L80.76,116.675z M88.015,124.728c0.417-0.589,1.05-1.362,1.901-2.315l5.137-5.438h2.861
	l-6.443,6.773l6.893,9.12h-2.916l-5.615-7.52l-1.817,1.569v5.95h-2.376v-22.583h2.376v11.978c0,0.529-0.038,1.35-0.116,2.465H88.015
	L88.015,124.728z M103.638,132.868h-2.406v-15.894h2.406V132.868L103.638,132.868z M101.028,112.653c0-0.549,0.133-0.95,0.405-1.206
	c0.273-0.26,0.609-0.386,1.016-0.386c0.387,0,0.724,0.126,1.001,0.391c0.281,0.262,0.421,0.665,0.421,1.201
	c0,0.546-0.14,0.953-0.421,1.215c-0.277,0.266-0.614,0.4-1.001,0.4c-0.406,0-0.742-0.135-1.016-0.4
	C101.161,113.606,101.028,113.199,101.028,112.653L101.028,112.653z M119.633,132.868v-10.284c0-1.297-0.291-2.263-0.885-2.901
	c-0.591-0.639-1.518-0.956-2.773-0.956c-1.666,0-2.883,0.448-3.655,1.346c-0.778,0.902-1.164,2.388-1.164,4.458v8.338h-2.407
	v-15.894h1.955l0.393,2.166h0.118c0.496-0.781,1.185-1.389,2.075-1.82c0.893-0.432,1.883-0.646,2.977-0.646
	c1.917,0,3.356,0.462,4.323,1.389c0.97,0.919,1.45,2.401,1.45,4.433v10.372H119.633L119.633,132.868z M140,116.975v1.523
	l-2.939,0.349c0.266,0.332,0.509,0.782,0.721,1.325c0.214,0.546,0.319,1.157,0.319,1.847c0,1.556-0.531,2.799-1.596,3.727
	c-1.065,0.923-2.525,1.391-4.383,1.391c-0.476,0-0.914-0.042-1.337-0.113c-1.023,0.538-1.536,1.22-1.536,2.043
	c0,0.437,0.179,0.757,0.535,0.967c0.362,0.208,0.976,0.311,1.849,0.311h2.812c1.723,0,3.045,0.362,3.97,1.091
	c0.923,0.724,1.382,1.777,1.382,3.159c0,1.757-0.701,3.098-2.114,4.021c-1.415,0.927-3.476,1.386-6.185,1.386
	c-2.079,0-3.686-0.386-4.809-1.158c-1.128-0.771-1.693-1.87-1.693-3.274c0-0.965,0.312-1.802,0.932-2.512
	c0.619-0.705,1.489-1.183,2.607-1.43c-0.404-0.189-0.747-0.469-1.018-0.855c-0.279-0.395-0.416-0.844-0.416-1.355
	c0-0.582,0.156-1.089,0.465-1.524c0.312-0.435,0.797-0.856,1.466-1.264c-0.822-0.34-1.49-0.914-2.011-1.726
	c-0.515-0.813-0.777-1.743-0.777-2.788c0-1.738,0.524-3.08,1.568-4.021c1.047-0.945,2.527-1.417,4.443-1.417
	c0.832,0,1.58,0.102,2.247,0.3H140L140,116.975z M127.32,135.538c0,0.855,0.359,1.512,1.088,1.955
	c0.723,0.442,1.764,0.666,3.119,0.666c2.021,0,3.521-0.303,4.492-0.907c0.97-0.6,1.461-1.423,1.461-2.451
	c0-0.863-0.268-1.454-0.803-1.788c-0.53-0.332-1.53-0.501-3.002-0.501h-2.886c-1.095,0-1.945,0.264-2.555,0.784
	C127.625,133.816,127.32,134.562,127.32,135.538L127.32,135.538z M128.626,122.059c0,1.117,0.312,1.956,0.941,2.525
	c0.628,0.572,1.505,0.857,2.628,0.857c2.354,0,3.527-1.146,3.527-3.428c0-2.392-1.188-3.585-3.57-3.585
	c-1.136,0-2.006,0.308-2.617,0.917C128.93,119.953,128.626,120.859,128.626,122.059L128.626,122.059z M7.914,89.083
	c2.236,0,3.973,0.764,5.212,2.29c1.234,1.531,1.854,3.691,1.854,6.484c0,2.794-0.625,4.967-1.87,6.514
	c-1.251,1.546-2.977,2.317-5.197,2.317c-1.106,0-2.118-0.204-3.034-0.614c-0.911-0.405-1.685-1.038-2.304-1.883H2.391l-0.547,2.181
	H0V82.22h2.575v5.867c0,1.315-0.044,2.495-0.122,3.544h0.122C3.776,89.932,5.557,89.083,7.914,89.083L7.914,89.083z M7.544,91.245
	c-1.76,0-3.025,0.503-3.804,1.514c-0.778,1.008-1.165,2.708-1.165,5.099c0,2.387,0.396,4.098,1.196,5.123
	c0.795,1.034,2.077,1.547,3.836,1.547c1.583,0,2.764-0.575,3.537-1.731c0.779-1.147,1.166-2.806,1.166-4.973
	c0-2.215-0.387-3.861-1.166-4.947C10.372,91.791,9.168,91.245,7.544,91.245L7.544,91.245z M26.661,106.688
	c-2.518,0-4.499-0.765-5.949-2.297c-1.457-1.531-2.182-3.659-2.182-6.382c0-2.744,0.671-4.924,2.022-6.539
	c1.353-1.613,3.162-2.42,5.441-2.42c2.129,0,3.817,0.698,5.058,2.105c1.24,1.402,1.864,3.25,1.864,5.544v1.632H21.198
	c0.054,1.999,0.558,3.512,1.511,4.553c0.958,1.03,2.303,1.549,4.046,1.549c1.829,0,3.639-0.381,5.43-1.15v2.3
	c-0.91,0.398-1.775,0.677-2.586,0.854C28.79,106.607,27.811,106.688,26.661,106.688L26.661,106.688z M25.96,91.212
	c-1.366,0-2.452,0.446-3.264,1.338c-0.815,0.882-1.292,2.111-1.435,3.683h8.888c0-1.621-0.359-2.863-1.086-3.727
	C28.337,91.642,27.305,91.212,25.96,91.212L25.96,91.212z M42.801,104.561c0.455,0,0.895-0.033,1.317-0.102
	c0.425-0.067,0.759-0.137,1.007-0.209v1.977c-0.281,0.131-0.688,0.242-1.234,0.331c-0.541,0.09-1.031,0.131-1.467,0.131
	c-3.29,0-4.933-1.729-4.933-5.2V91.373h-2.435v-1.239l2.435-1.076l1.087-3.629h1.488v3.94h4.938v2.004h-4.938v10.003
	c0,1.03,0.243,1.814,0.732,2.362C41.285,104.284,41.952,104.561,42.801,104.561L42.801,104.561z M58.981,106.372l-0.513-2.42h-0.128
	c-0.849,1.063-1.69,1.79-2.532,2.171c-0.847,0.377-1.896,0.565-3.156,0.565c-1.689,0-3.009-0.434-3.969-1.3
	c-0.953-0.877-1.436-2.109-1.436-3.721c0-3.436,2.75-5.237,8.236-5.401l2.889-0.096v-1.055c0-1.328-0.287-2.313-0.857-2.947
	c-0.578-0.638-1.494-0.957-2.756-0.957c-1.42,0-3.02,0.436-4.809,1.304l-0.791-1.969c0.838-0.459,1.754-0.816,2.75-1.078
	c1.002-0.258,2.003-0.386,3.004-0.386c2.029,0,3.527,0.451,4.507,1.353c0.979,0.899,1.468,2.338,1.468,4.327v11.609H58.981
	L58.981,106.372z M53.161,104.561c1.604,0,2.865-0.438,3.776-1.317c0.916-0.882,1.377-2.11,1.377-3.693v-1.536l-2.579,0.112
	c-2.046,0.068-3.522,0.385-4.427,0.953c-0.908,0.561-1.357,1.44-1.357,2.627c0,0.932,0.278,1.641,0.848,2.123
	C51.357,104.319,52.147,104.561,53.161,104.561L53.161,104.561z M74.114,106.688c-1.106,0-2.118-0.204-3.035-0.614
	c-0.911-0.405-1.684-1.038-2.304-1.883H68.59c0.122,0.99,0.186,1.932,0.186,2.82v6.987h-2.573v-24.63h2.091l0.36,2.32h0.122
	c0.662-0.932,1.436-1.605,2.314-2.017c0.881-0.416,1.887-0.622,3.024-0.622c2.257,0,3.999,0.774,5.229,2.316
	c1.223,1.541,1.836,3.699,1.836,6.49c0,2.794-0.623,4.967-1.868,6.514C78.062,105.917,76.334,106.688,74.114,106.688L74.114,106.688
	z M73.744,91.245c-1.738,0-2.998,0.482-3.77,1.439c-0.781,0.966-1.179,2.494-1.199,4.598v0.575c0,2.387,0.398,4.098,1.199,5.123
	c0.793,1.034,2.074,1.547,3.833,1.547c1.468,0,2.622-0.591,3.454-1.784c0.832-1.192,1.25-2.827,1.25-4.92
	c0-2.118-0.418-3.744-1.25-4.879S75.253,91.245,73.744,91.245L73.744,91.245z M88.253,106.372h-2.574V82.22h2.574V106.372
	L88.253,106.372z M104.174,106.372l-0.513-2.42h-0.126c-0.85,1.063-1.69,1.79-2.533,2.171c-0.848,0.377-1.896,0.565-3.158,0.565
	c-1.688,0-3.008-0.434-3.967-1.3c-0.951-0.877-1.435-2.109-1.435-3.721c0-3.436,2.749-5.237,8.237-5.401l2.887-0.096v-1.055
	c0-1.328-0.286-2.313-0.857-2.947c-0.578-0.638-1.495-0.957-2.754-0.957c-1.422,0-3.021,0.436-4.812,1.304l-0.789-1.969
	c0.837-0.459,1.753-0.816,2.749-1.078c1.001-0.258,2.002-0.386,3.002-0.386c2.031,0,3.528,0.451,4.51,1.353
	c0.979,0.899,1.468,2.338,1.468,4.327v11.609H104.174L104.174,106.372z M98.354,104.561c1.604,0,2.864-0.438,3.776-1.317
	c0.916-0.882,1.377-2.11,1.377-3.693v-1.536l-2.58,0.112c-2.045,0.068-3.521,0.385-4.428,0.953c-0.905,0.561-1.356,1.44-1.356,2.627
	c0,0.932,0.28,1.641,0.849,2.123C96.553,104.319,97.342,104.561,98.354,104.561L98.354,104.561z M118.189,106.688
	c-2.461,0-4.369-0.756-5.719-2.271c-1.351-1.519-2.025-3.666-2.025-6.435c0-2.852,0.686-5.048,2.057-6.604
	c1.372-1.55,3.32-2.329,5.857-2.329c0.816,0,1.633,0.088,2.453,0.266c0.815,0.174,1.457,0.381,1.922,0.626l-0.795,2.188
	c-0.564-0.229-1.186-0.415-1.857-0.568c-0.673-0.146-1.267-0.223-1.785-0.223c-3.453,0-5.18,2.204-5.18,6.612
	c0,2.086,0.418,3.692,1.259,4.81c0.849,1.118,2.093,1.673,3.753,1.673c1.412,0,2.869-0.307,4.357-0.915v2.288
	C121.349,106.394,119.918,106.688,118.189,106.688L118.189,106.688z M133.706,106.688c-2.518,0-4.498-0.765-5.95-2.297
	c-1.457-1.531-2.181-3.659-2.181-6.382c0-2.744,0.672-4.924,2.023-6.539c1.35-1.613,3.161-2.42,5.438-2.42
	c2.131,0,3.82,0.698,5.059,2.105c1.24,1.402,1.863,3.25,1.863,5.544v1.632h-11.715c0.053,1.999,0.555,3.512,1.51,4.553
	c0.958,1.03,2.304,1.549,4.047,1.549c1.829,0,3.639-0.381,5.43-1.15v2.3c-0.911,0.398-1.775,0.677-2.586,0.854
	C135.834,106.607,134.854,106.688,133.706,106.688L133.706,106.688z M133.006,91.212c-1.365,0-2.453,0.446-3.263,1.338
	c-0.817,0.882-1.292,2.111-1.435,3.683h8.889c0-1.621-0.361-2.863-1.088-3.727C135.385,91.642,134.351,91.212,133.006,91.212
	L133.006,91.212z"/>
</svg>
