<?xml version="1.0" encoding="UTF-8" standalone="no"?>
<!-- Generator: Adobe Illustrator 15.0.0, SVG Export Plug-In . SVG Version: 6.00 Build 0)  -->

<svg
   xmlns:dc="http://purl.org/dc/elements/1.1/"
   xmlns:cc="http://creativecommons.org/ns#"
   xmlns:rdf="http://www.w3.org/1999/02/22-rdf-syntax-ns#"
   xmlns:svg="http://www.w3.org/2000/svg"
   xmlns="http://www.w3.org/2000/svg"
   xmlns:sodipodi="http://sodipodi.sourceforge.net/DTD/sodipodi-0.dtd"
   xmlns:inkscape="http://www.inkscape.org/namespaces/inkscape"
   version="1.1"
   id="Layer_1"
   x="0px"
   y="0px"
   width="140px"
   height="140px"
   viewBox="0 0 140 140"
   enable-background="new 0 0 140 140"
   xml:space="preserve"
   inkscape:version="0.91 r13725"
   sodipodi:docname="logo.svg"><metadata
     id="metadata11"><rdf:RDF><cc:Work
         rdf:about=""><dc:format>image/svg+xml</dc:format><dc:type
           rdf:resource="http://purl.org/dc/dcmitype/StillImage" /></cc:Work></rdf:RDF></metadata><defs
     id="defs9" /><sodipodi:namedview
     pagecolor="#ffffff"
     bordercolor="#666666"
     borderopacity="1"
     objecttolerance="10"
     gridtolerance="10"
     guidetolerance="10"
     inkscape:pageopacity="0"
     inkscape:pageshadow="2"
     inkscape:window-width="1366"
     inkscape:window-height="768"
     id="namedview7"
     showgrid="false"
     inkscape:zoom="2.38396"
     inkscape:cx="111.71388"
     inkscape:cy="49.62622"
     inkscape:window-x="-1"
     inkscape:window-y="-23"
     inkscape:window-maximized="1"
     inkscape:current-layer="Layer_1" /><path
     fill-rule="evenodd"
     clip-rule="evenodd"
     d="M87.673,60c-2.36,0-5.201-2.096-6.078-4.289l-8.468-21.256  c-0.781-1.953,0.172-4.224,2.125-5.004l21.17-8.49c0.405-0.162,1.225-0.256,1.569-0.256c1.415,0,2.009,1.438,2.009,2.061v33.071  C100,57.94,97.409,60,95.305,60H87.673L87.673,60z M72.435,26.271L72.435,26.271c0.48,0,0.951-0.158,1.4-0.337l21.61-8.504  c2.192-0.877,4.555-3.751,4.555-6.111V3.686C100,1.582,97.409,0,95.305,0H62.233c-0.869,0-1.522,0.191-1.839,0.658  c-0.314,0.465-0.311,1.135,0.013,1.943l8.468,21.223C69.448,25.257,70.879,26.271,72.435,26.271L72.435,26.271z M41.239,38.828  c-1.417,0-1.239-1.448-1.239-2.072V3.686C40,1.582,41.051,0,43.154,0h7.631c2.361,0,5.202,1.857,6.079,4.051l8.469,21.139  c0.78,1.953-0.173,4.16-2.127,4.943l-21.17,8.459c-0.403,0.162-0.618,0.24-0.962,0.24L41.239,38.828L41.239,38.828z M43.154,60  h33.071c0.869,0,1.522-0.43,1.838-0.896c0.314-0.469,0.312-1.254-0.011-2.061l-8.47-21.215c-0.573-1.434-2.001-2.418-3.558-2.418  c-0.48,0-0.951,0.079-1.401,0.26l-20.84,8.463C41.592,43.01,40,45.844,40,48.205v7.632C40,57.94,41.051,60,43.154,60z"
     id="path3" /><path
     d="m 7.914,89.083 c 2.236,0 3.973,0.764 5.212,2.29 1.234,1.531 1.854,3.691 1.854,6.484 0,2.794 -0.625,4.967 -1.87,6.514 -1.251,1.546 -2.977,2.317 -5.197,2.317 -1.106,0 -2.118,-0.204 -3.034,-0.614 -0.911,-0.405 -1.685,-1.038 -2.304,-1.883 l -0.184,0 -0.547,2.181 -1.844,0 0,-24.152 2.575,0 0,5.867 c 0,1.315 -0.044,2.495 -0.122,3.544 l 0.122,0 c 1.201,-1.699 2.982,-2.548 5.339,-2.548 z m -0.37,2.162 c -1.76,0 -3.025,0.503 -3.804,1.514 -0.778,1.008 -1.165,2.708 -1.165,5.099 0,2.387 0.396,4.098 1.196,5.123 0.795,1.034 2.077,1.547 3.836,1.547 1.583,0 2.764,-0.575 3.537,-1.731 0.779,-1.147 1.166,-2.806 1.166,-4.973 0,-2.215 -0.387,-3.861 -1.166,-4.947 -0.772,-1.086 -1.976,-1.632 -3.6,-1.632 z m 19.117,15.443 c -2.518,0 -4.499,-0.765 -5.949,-2.297 -1.457,-1.531 -2.182,-3.659 -2.182,-6.382 0,-2.744 0.671,-4.924 2.022,-6.539 1.353,-1.613 3.162,-2.42 5.441,-2.42 2.129,0 3.817,0.698 5.058,2.105 1.24,1.402 1.864,3.25 1.864,5.544 l 0,1.632 -11.717,0 c 0.054,1.999 0.558,3.512 1.511,4.553 0.958,1.03 2.303,1.549 4.046,1.549 1.829,0 3.639,-0.381 5.43,-1.15 l 0,2.3 c -0.91,0.398 -1.775,0.677 -2.586,0.854 -0.809,0.17 -1.788,0.251 -2.938,0.251 z M 25.96,91.212 c -1.366,0 -2.452,0.446 -3.264,1.338 -0.815,0.882 -1.292,2.111 -1.435,3.683 l 8.888,0 c 0,-1.621 -0.359,-2.863 -1.086,-3.727 -0.726,-0.864 -1.758,-1.294 -3.103,-1.294 z m 16.841,13.349 c 0.455,0 0.895,-0.033 1.317,-0.102 0.425,-0.067 0.759,-0.137 1.007,-0.209 l 0,1.977 c -0.281,0.131 -0.688,0.242 -1.234,0.331 -0.541,0.09 -1.031,0.131 -1.467,0.131 -3.29,0 -4.933,-1.729 -4.933,-5.2 l 0,-10.116 -2.435,0 0,-1.239 2.435,-1.076 1.087,-3.629 1.488,0 0,3.94 4.938,0 0,2.004 -4.938,0 0,10.003 c 0,1.03 0.243,1.814 0.732,2.362 0.487,0.546 1.154,0.823 2.003,0.823 z m 16.18,1.811 -0.513,-2.42 -0.128,0 c -0.849,1.063 -1.69,1.79 -2.532,2.171 -0.847,0.377 -1.896,0.565 -3.156,0.565 -1.689,0 -3.009,-0.434 -3.969,-1.3 -0.953,-0.877 -1.436,-2.109 -1.436,-3.721 0,-3.436 2.75,-5.237 8.236,-5.401 l 2.889,-0.096 0,-1.055 c 0,-1.328 -0.287,-2.313 -0.857,-2.947 -0.578,-0.638 -1.494,-0.957 -2.756,-0.957 -1.42,0 -3.02,0.436 -4.809,1.304 l -0.791,-1.969 c 0.838,-0.459 1.754,-0.816 2.75,-1.078 1.002,-0.258 2.003,-0.386 3.004,-0.386 2.029,0 3.527,0.451 4.507,1.353 0.979,0.899 1.468,2.338 1.468,4.327 l 0,11.609 -1.907,0 z m -5.82,-1.811 c 1.604,0 2.865,-0.438 3.776,-1.317 0.916,-0.882 1.377,-2.11 1.377,-3.693 l 0,-1.536 -2.579,0.112 c -2.046,0.068 -3.522,0.385 -4.427,0.953 -0.908,0.561 -1.357,1.44 -1.357,2.627 0,0.932 0.278,1.641 0.848,2.123 0.558,0.489 1.348,0.731 2.362,0.731 z m 20.953,2.127 c -1.106,0 -2.118,-0.204 -3.035,-0.614 -0.911,-0.405 -1.684,-1.038 -2.304,-1.883 l -0.185,0 c 0.122,0.99 0.186,1.932 0.186,2.82 l 0,6.987 -2.573,0 0,-24.63 2.091,0 0.36,2.32 0.122,0 c 0.662,-0.932 1.436,-1.605 2.314,-2.017 0.881,-0.416 1.887,-0.622 3.024,-0.622 2.257,0 3.999,0.774 5.229,2.316 1.223,1.541 1.836,3.699 1.836,6.49 0,2.794 -0.623,4.967 -1.868,6.514 -1.249,1.548 -2.977,2.319 -5.197,2.319 z m -0.37,-15.443 c -1.738,0 -2.998,0.482 -3.77,1.439 -0.781,0.966 -1.179,2.494 -1.199,4.598 l 0,0.575 c 0,2.387 0.398,4.098 1.199,5.123 0.793,1.034 2.074,1.547 3.833,1.547 1.468,0 2.622,-0.591 3.454,-1.784 0.832,-1.192 1.25,-2.827 1.25,-4.92 0,-2.118 -0.418,-3.744 -1.25,-4.879 -0.832,-1.135 -2.008,-1.699 -3.517,-1.699 z m 14.509,15.127 -2.574,0 0,-24.152 2.574,0 0,24.152 z m 15.921,0 -0.513,-2.42 -0.126,0 c -0.85,1.063 -1.69,1.79 -2.533,2.171 -0.848,0.377 -1.896,0.565 -3.158,0.565 -1.688,0 -3.008,-0.434 -3.967,-1.3 -0.951,-0.877 -1.435,-2.109 -1.435,-3.721 0,-3.436 2.749,-5.237 8.237,-5.401 l 2.887,-0.096 0,-1.055 c 0,-1.328 -0.286,-2.313 -0.857,-2.947 -0.578,-0.638 -1.495,-0.957 -2.754,-0.957 -1.422,0 -3.021,0.436 -4.812,1.304 l -0.789,-1.969 c 0.837,-0.459 1.753,-0.816 2.749,-1.078 1.001,-0.258 2.002,-0.386 3.002,-0.386 2.031,0 3.528,0.451 4.51,1.353 0.979,0.899 1.468,2.338 1.468,4.327 l 0,11.609 -1.909,0 z m -5.82,-1.811 c 1.604,0 2.864,-0.438 3.776,-1.317 0.916,-0.882 1.377,-2.11 1.377,-3.693 l 0,-1.536 -2.58,0.112 c -2.045,0.068 -3.521,0.385 -4.428,0.953 -0.905,0.561 -1.356,1.44 -1.356,2.627 0,0.932 0.28,1.641 0.849,2.123 0.561,0.489 1.35,0.731 2.362,0.731 z m 19.835,2.127 c -2.461,0 -4.369,-0.756 -5.719,-2.271 -1.351,-1.519 -2.025,-3.666 -2.025,-6.435 0,-2.852 0.686,-5.048 2.057,-6.604 1.372,-1.55 3.32,-2.329 5.857,-2.329 0.816,0 1.633,0.088 2.453,0.266 0.815,0.174 1.457,0.381 1.922,0.626 l -0.795,2.188 c -0.564,-0.229 -1.186,-0.415 -1.857,-0.568 -0.673,-0.146 -1.267,-0.223 -1.785,-0.223 -3.453,0 -5.18,2.204 -5.18,6.612 0,2.086 0.418,3.692 1.259,4.81 0.849,1.118 2.093,1.673 3.753,1.673 1.412,0 2.869,-0.307 4.357,-0.915 l 0,2.288 c -1.137,0.588 -2.568,0.882 -4.297,0.882 z m 15.517,0 c -2.518,0 -4.498,-0.765 -5.95,-2.297 -1.457,-1.531 -2.181,-3.659 -2.181,-6.382 0,-2.744 0.672,-4.924 2.023,-6.539 1.35,-1.613 3.161,-2.42 5.438,-2.42 2.131,0 3.82,0.698 5.059,2.105 1.24,1.402 1.863,3.25 1.863,5.544 l 0,1.632 -11.715,0 c 0.053,1.999 0.555,3.512 1.51,4.553 0.958,1.03 2.304,1.549 4.047,1.549 1.829,0 3.639,-0.381 5.43,-1.15 l 0,2.3 c -0.911,0.398 -1.775,0.677 -2.586,0.854 -0.81,0.17 -1.79,0.251 -2.938,0.251 z m -0.7,-15.476 c -1.365,0 -2.453,0.446 -3.263,1.338 -0.817,0.882 -1.292,2.111 -1.435,3.683 l 8.889,0 c 0,-1.621 -0.361,-2.863 -1.088,-3.727 -0.724,-0.864 -1.758,-1.294 -3.103,-1.294 z"
     id="path5"
     inkscape:connector-curvature="0"
     style="clip-rule:evenodd;fill-rule:evenodd"
     sodipodi:nodetypes="ccscscccccccsccccccscscscccccscscscccscccccccccccccccccssccccccccccscccccccscsccscscccscscccccscccscccccccscccccccscsccccccscscssccccccccccccscsccscscccscscccccscccscccccscsccccsscsccccccscscscccscccccccccccc" /></svg>